ISO-10303-21;
HEADER;
FILE_DESCRIPTION(('ViewDefinition[DesignTransferView]'),'2;1');
FILE_NAME('educational_shell.ifc','2026-09-05T00:00:00',('AI-assisted educational research prototype'),('Independent research - not an EPFL model'),'IfcOpenShell 0.8.5','IfcOpenShell 0.8.5','Nobody');
FILE_SCHEMA(('IFC4'));
ENDSEC;
DATA;
#1=IFCPROJECT('3Nnk_wc5POWP8iVIg5EjCo',$,'Educational IFC carbon data testbed',$,$,$,$,(#10),#5);
#2=IFCSIUNIT(*,.LENGTHUNIT.,$,.METRE.);
#3=IFCSIUNIT(*,.AREAUNIT.,$,.SQUARE_METRE.);
#4=IFCSIUNIT(*,.VOLUMEUNIT.,$,.CUBIC_METRE.);
#5=IFCUNITASSIGNMENT((#2,#3,#4));
#6=IFCCARTESIANPOINT((0.,0.,0.));
#7=IFCDIRECTION((0.,0.,1.));
#8=IFCDIRECTION((1.,0.,0.));
#9=IFCAXIS2PLACEMENT3D(#6,#7,#8);
#10=IFCGEOMETRICREPRESENTATIONCONTEXT($,'Model',3,1.0000000000000001E-05,#9,$);
#11=IFCGEOMETRICREPRESENTATIONSUBCONTEXT('Body','Model',*,*,*,*,#10,$,.MODEL_VIEW.,$);
#12=IFCSITE('2elxKLQLrHwBsQDcbpaOCa',$,'Educational site - no geographic calibration',$,$,$,$,$,$,$,$,$,$,$);
#13=IFCBUILDING('0IwMg53dzNLABpRJbOA5NW',$,'Single-room shell - incomplete building',$,$,$,$,$,$,$,$,$);
#14=IFCBUILDINGSTOREY('0q8pHYfZrIZQOWbtCJmpVU',$,'Ground floor',$,$,$,$,$,$,$);
#15=IFCRELAGGREGATES('2DG1DE9xfPTxp$bxhFDNNg',$,$,$,#1,(#12));
#16=IFCRELAGGREGATES('3H5qCb9LTRNApkdLFaqWBt',$,$,$,#12,(#13));
#17=IFCRELAGGREGATES('0jQFwQaVnMzuMwPZBa21y_',$,$,$,#13,(#14));
#18=IFCWALL('2nDAak87zJN9sh1nexoOfY',$,'South wall',$,$,#35,#30,$,$);
#19=IFCRELCONTAINEDINSPATIALSTRUCTURE('2xBrXbeAjJhv2iojJiXnbi',$,$,$,(#18,#41,#61,#81,#101),#14);
#20=IFCCARTESIANPOINTLIST2D(((0.,0.),(0.,0.20000000000000001),(6.4000000000000004,0.20000000000000001),(6.4000000000000004,0.),(0.,0.)));
#21=IFCINDEXEDPOLYCURVE(#20,$,.F.);
#22=IFCDIRECTION((0.,0.,1.));
#23=IFCARBITRARYCLOSEDPROFILEDEF(.AREA.,$,#21);
#24=IFCCARTESIANPOINT((0.,0.,0.));
#25=IFCDIRECTION((0.,0.,1.));
#26=IFCDIRECTION((1.,0.,0.));
#27=IFCAXIS2PLACEMENT3D(#24,#25,#26);
#28=IFCEXTRUDEDAREASOLID(#23,#27,#22,3.);
#29=IFCSHAPEREPRESENTATION(#11,'Body','SweptSolid',(#28));
#30=IFCPRODUCTDEFINITIONSHAPE($,$,(#29));
#31=IFCCARTESIANPOINT((0.,0.,0.20000000000000001));
#32=IFCDIRECTION((0.,0.,1.));
#33=IFCDIRECTION((1.,0.,0.));
#34=IFCAXIS2PLACEMENT3D(#31,#32,#33);
#35=IFCLOCALPLACEMENT($,#34);
#36=IFCMATERIAL('Clay brick (KBOB generic)',$,$);
#37=IFCRELASSOCIATESMATERIAL('3s4L$e2xXHUgXMZblm5rUY',$,$,$,(#61,#18,#41),#36);
#38=IFCELEMENTQUANTITY('2ktx4VirbQpw0K8NwZWD73',$,'Qto_WallBaseQuantities',$,'BaseQuantities',(#40));
#39=IFCRELDEFINESBYPROPERTIES('18_axrPeDQIh5NPNSoYhdC',$,$,$,(#18),#38);
#40=IFCQUANTITYVOLUME('NetVolume',$,$,3.8400000000000007,$);
#41=IFCWALL('2eX6FVujHNjO6g5Y49W5Wl',$,'North wall',$,$,#57,#52,$,$);
#42=IFCCARTESIANPOINTLIST2D(((0.,0.),(0.,0.20000000000000001),(6.4000000000000004,0.20000000000000001),(6.4000000000000004,0.),(0.,0.)));
#43=IFCINDEXEDPOLYCURVE(#42,$,.F.);
#44=IFCDIRECTION((0.,0.,1.));
#45=IFCARBITRARYCLOSEDPROFILEDEF(.AREA.,$,#43);
#46=IFCCARTESIANPOINT((0.,0.,0.));
#47=IFCDIRECTION((0.,0.,1.));
#48=IFCDIRECTION((1.,0.,0.));
#49=IFCAXIS2PLACEMENT3D(#46,#47,#48);
#50=IFCEXTRUDEDAREASOLID(#45,#49,#44,3.);
#51=IFCSHAPEREPRESENTATION(#11,'Body','SweptSolid',(#50));
#52=IFCPRODUCTDEFINITIONSHAPE($,$,(#51));
#53=IFCCARTESIANPOINT((0.,4.2000000000000002,0.20000000000000001));
#54=IFCDIRECTION((0.,0.,1.));
#55=IFCDIRECTION((1.,0.,0.));
#56=IFCAXIS2PLACEMENT3D(#53,#54,#55);
#57=IFCLOCALPLACEMENT($,#56);
#58=IFCELEMENTQUANTITY('1T9lC_O8PP2xwSz4U6g7UR',$,'Qto_WallBaseQuantities',$,'BaseQuantities',(#60));
#59=IFCRELDEFINESBYPROPERTIES('0xvqoqiKbQAfn0KDP7YKNr',$,$,$,(#41),#58);
#60=IFCQUANTITYVOLUME('NetVolume',$,$,3.8400000000000007,$);
#61=IFCWALL('1tcBtYSJnKBQ09N7yDeOQc',$,'West wall',$,$,#77,#72,$,$);
#62=IFCCARTESIANPOINTLIST2D(((0.,0.),(0.,0.20000000000000001),(4.,0.20000000000000001),(4.,0.),(0.,0.)));
#63=IFCINDEXEDPOLYCURVE(#62,$,.F.);
#64=IFCDIRECTION((0.,0.,1.));
#65=IFCARBITRARYCLOSEDPROFILEDEF(.AREA.,$,#63);
#66=IFCCARTESIANPOINT((0.,0.,0.));
#67=IFCDIRECTION((0.,0.,1.));
#68=IFCDIRECTION((1.,0.,0.));
#69=IFCAXIS2PLACEMENT3D(#66,#67,#68);
#70=IFCEXTRUDEDAREASOLID(#65,#69,#64,3.);
#71=IFCSHAPEREPRESENTATION(#11,'Body','SweptSolid',(#70));
#72=IFCPRODUCTDEFINITIONSHAPE($,$,(#71));
#73=IFCCARTESIANPOINT((0.20000000000000001,0.20000000000000001,0.20000000000000001));
#74=IFCDIRECTION((0.,0.,1.));
#75=IFCDIRECTION((6.123233995736766E-17,1.,0.));
#76=IFCAXIS2PLACEMENT3D(#73,#74,#75);
#77=IFCLOCALPLACEMENT($,#76);
#78=IFCELEMENTQUANTITY('0bc0N_kDbHyRmIYLtFIRJG',$,'Qto_WallBaseQuantities',$,'BaseQuantities',(#80));
#79=IFCRELDEFINESBYPROPERTIES('30_2fJA$zJ1gHoKjS7hy6l',$,$,$,(#61),#78);
#80=IFCQUANTITYVOLUME('NetVolume',$,$,2.4000000000000004,$);
#81=IFCWALL('2xWiWNBerQ9h6PM$Q5f4B2',$,'East wall',$,$,#97,#92,$,$);
#82=IFCCARTESIANPOINTLIST2D(((0.,0.),(0.,0.20000000000000001),(4.,0.20000000000000001),(4.,0.),(0.,0.)));
#83=IFCINDEXEDPOLYCURVE(#82,$,.F.);
#84=IFCDIRECTION((0.,0.,1.));
#85=IFCARBITRARYCLOSEDPROFILEDEF(.AREA.,$,#83);
#86=IFCCARTESIANPOINT((0.,0.,0.));
#87=IFCDIRECTION((0.,0.,1.));
#88=IFCDIRECTION((1.,0.,0.));
#89=IFCAXIS2PLACEMENT3D(#86,#87,#88);
#90=IFCEXTRUDEDAREASOLID(#85,#89,#84,3.);
#91=IFCSHAPEREPRESENTATION(#11,'Body','SweptSolid',(#90));
#92=IFCPRODUCTDEFINITIONSHAPE($,$,(#91));
#93=IFCCARTESIANPOINT((6.4000000000000004,0.20000000000000001,0.20000000000000001));
#94=IFCDIRECTION((0.,0.,1.));
#95=IFCDIRECTION((6.123233995736766E-17,1.,0.));
#96=IFCAXIS2PLACEMENT3D(#93,#94,#95);
#97=IFCLOCALPLACEMENT($,#96);
#98=IFCELEMENTQUANTITY('0S_yWOlZzKrQRfmJQ$k884',$,'Qto_WallBaseQuantities',$,'BaseQuantities',(#100));
#99=IFCRELDEFINESBYPROPERTIES('0k6vo7OZHKLPkwt4sW4vHJ',$,$,$,(#81),#98);
#100=IFCQUANTITYVOLUME('NetVolume',$,$,2.4000000000000004,$);
#101=IFCSLAB('3hqEctv9jQtAaM7UUl$dxp',$,'Floor slab',$,$,#117,#112,$,$);
#102=IFCCARTESIANPOINTLIST2D(((0.,0.),(0.,4.4000000000000004),(6.4000000000000004,4.4000000000000004),(6.4000000000000004,0.),(0.,0.)));
#103=IFCINDEXEDPOLYCURVE(#102,$,.F.);
#104=IFCDIRECTION((0.,0.,1.));
#105=IFCARBITRARYCLOSEDPROFILEDEF(.AREA.,$,#103);
#106=IFCCARTESIANPOINT((0.,0.,0.));
#107=IFCDIRECTION((0.,0.,1.));
#108=IFCDIRECTION((1.,0.,0.));
#109=IFCAXIS2PLACEMENT3D(#106,#107,#108);
#110=IFCEXTRUDEDAREASOLID(#105,#109,#104,0.20000000000000001);
#111=IFCSHAPEREPRESENTATION(#11,'Body','SweptSolid',(#110));
#112=IFCPRODUCTDEFINITIONSHAPE($,$,(#111));
#113=IFCCARTESIANPOINT((0.,0.,0.));
#114=IFCDIRECTION((0.,0.,1.));
#115=IFCDIRECTION((1.,0.,0.));
#116=IFCAXIS2PLACEMENT3D(#113,#114,#115);
#117=IFCLOCALPLACEMENT($,#116);
#118=IFCMATERIAL('Concrete (unreinforced, KBOB generic)',$,$);
#119=IFCRELASSOCIATESMATERIAL('00x7ESyoLGpfsrC9RzHZvV',$,$,$,(#101),#118);
#120=IFCELEMENTQUANTITY('2LUbnrmcnS2giIDvv11by2',$,'Qto_SlabBaseQuantities',$,'BaseQuantities',(#122));
#121=IFCRELDEFINESBYPROPERTIES('3gr$s6fLDKLB6kh3G1Vkgk',$,$,$,(#101),#120);
#122=IFCQUANTITYVOLUME('NetVolume',$,$,5.6320000000000014,$);
#123=IFCMATERIAL('Unspecified masonry',$,$);
#124=IFCRELASSOCIATESMATERIAL('2_ziSlpC13sPHzttfhULEH',$,$,$,(#81),#123);
ENDSEC;
END-ISO-10303-21;
